<svg width="16" height="16" viewBox="0 0 16 16" fill="none" xmlns="http://www.w3.org/2000/svg">
<circle cx="8" cy="8" r="8" fill="#B5B0AC"/>
<path d="M6.93846 11.9978C6.93846 12.2506 7.03484 12.4634 7.24368 12.6363C7.45251 12.8093 7.70954 12.8891 8.01476 12.8891C8.31998 12.8891 8.57701 12.8093 8.78585 12.6363C8.99468 12.4634 9.09107 12.2506 9.09107 11.9978C9.09107 11.745 8.99468 11.5322 8.78585 11.3592C8.57701 11.1863 8.31998 11.1065 8.01476 11.1065C7.70954 11.1065 7.45251 11.1863 7.24368 11.3592C7.03484 11.5322 6.93846 11.745 6.93846 11.9978ZM5.39629 4.32191L5.7497 5.31964C6.03886 5.01367 6.37621 4.77422 6.76175 4.60127C7.14729 4.42833 7.56496 4.34852 8.01476 4.34852C8.38424 4.34852 8.6734 4.41503 8.88223 4.53476C9.09107 4.65449 9.18745 4.81412 9.18745 5.01367C9.18745 5.21322 9.075 5.39946 8.86617 5.5591C8.65733 5.71873 8.31998 5.91828 7.85412 6.15774C7.48464 6.34398 7.17942 6.53022 6.93846 6.71647C6.69749 6.90271 6.50472 7.08895 6.36014 7.26189C6.21557 7.43483 6.10312 7.60778 6.03886 7.78072C5.9746 7.95366 5.94247 8.1266 5.94247 8.29954C5.94247 8.53899 5.99067 8.76514 6.08705 8.97799C6.18344 9.19084 6.32802 9.37709 6.52079 9.53672C6.71356 9.69636 6.93846 9.81609 7.21155 9.90921C7.48464 10.0023 7.78986 10.0422 8.12721 10.0422C8.68946 10.0422 9.13926 9.93582 9.49267 9.73627C9.84609 9.53672 10.0871 9.32387 10.2316 9.11102L9.99067 8.08669C9.44448 8.5656 8.88223 8.80505 8.30392 8.80505C8.01476 8.80505 7.78986 8.75184 7.62922 8.64542C7.46858 8.53899 7.38826 8.40596 7.38826 8.23302C7.38826 8.1665 7.40432 8.09999 7.43645 8.02017C7.46858 7.94035 7.53283 7.86053 7.62922 7.78072C7.72561 7.7009 7.85412 7.60777 8.03083 7.50135C8.20753 7.39493 8.43243 7.2752 8.70553 7.12886C8.96255 6.99583 9.20352 6.8628 9.44448 6.71647C9.68545 6.57013 9.89428 6.4105 10.071 6.23756C10.2477 6.06462 10.3923 5.87837 10.5047 5.67883C10.6172 5.47928 10.6654 5.25313 10.6654 5.00037C10.6654 4.73431 10.6011 4.48155 10.4887 4.25539C10.3762 4.02924 10.1995 3.82969 9.9746 3.65675C9.7497 3.48381 9.47661 3.35078 9.13926 3.25766C8.80191 3.16454 8.41637 3.11133 7.98263 3.11133C7.69348 3.11133 7.40432 3.15124 7.13123 3.21775C6.85814 3.28427 6.60111 3.37739 6.36014 3.49712C6.11918 3.61685 5.91034 3.74988 5.73364 3.90951C5.55693 4.06915 5.42842 4.22879 5.33203 4.40173L5.39629 4.32191Z" fill="white"/>
</svg>
