<svg width="24" height="24" viewBox="0 0 24 24" fill="none" xmlns="http://www.w3.org/2000/svg">
<path d="M4.17525 19.8238C5.51909 21.1667 7.67875 21.1667 11.9999 21.1667C16.3211 21.1667 18.4817 21.1667 19.8237 19.8238C21.1666 18.4827 21.1666 16.3212 21.1666 12C21.1666 7.67883 21.1666 5.51825 19.8237 4.17533C18.4826 2.83333 16.3211 2.83333 11.9999 2.83333C7.67875 2.83333 5.51817 2.83333 4.17525 4.17533C2.83325 5.51917 2.83325 7.67883 2.83325 12C2.83325 16.3212 2.83325 18.4818 4.17525 19.8238Z" stroke="#333333" stroke-width="1.6"/>
<path d="M17.5 8.79167H13.8333M17.5 14.2917H13.8333M17.5 17.0417H13.8333M10.1667 8.79167H8.33333M8.33333 8.79167H6.5M8.33333 8.79167V6.95833M8.33333 8.79167V10.625M9.70833 14.2917L8.33333 15.6667M8.33333 15.6667L6.95833 17.0417M8.33333 15.6667L6.95833 14.2917M8.33333 15.6667L9.70833 17.0417" stroke="#333333" stroke-width="1.6" stroke-linecap="round"/>
</svg>
