<svg width="28" height="28" viewBox="0 0 28 28" fill="none" xmlns="http://www.w3.org/2000/svg">
<rect width="28" height="28" rx="14" fill="#25D366"/>
<path d="M9.81556 13.0589C10.9356 15.26 12.74 17.0567 14.9411 18.1844L16.6522 16.4733C16.8622 16.2633 17.1733 16.1933 17.4456 16.2867C18.3167 16.5744 19.2578 16.73 20.2222 16.73C20.65 16.73 21 17.08 21 17.5078V20.2222C21 20.65 20.65 21 20.2222 21C12.9189 21 7 15.0811 7 7.77778C7 7.35 7.35 7 7.77778 7H10.5C10.9278 7 11.2778 7.35 11.2778 7.77778C11.2778 8.75 11.4333 9.68333 11.7211 10.5544C11.8067 10.8267 11.7444 11.13 11.5267 11.3478L9.81556 13.0589Z" fill="white"/>
</svg>
