<svg width="28" height="28" viewBox="0 0 28 28" fill="none" xmlns="http://www.w3.org/2000/svg">
<path d="M0 14C0 21.732 6.26801 28 14 28C21.732 28 28 21.732 28 14C28 6.26801 21.732 0 14 0C6.26801 0 0 6.26801 0 14Z" fill="#2FC0EE"/>
<path d="M7.08743 13.7448C10.8455 12.1074 13.3515 11.028 14.6054 10.5065C18.1854 9.01738 18.9293 8.75872 19.4142 8.75008C19.5208 8.7483 19.7593 8.77472 19.9137 8.90005C20.0442 9.00588 20.08 9.14883 20.0972 9.24917C20.1144 9.3495 20.1358 9.57806 20.1188 9.75666C19.9248 11.7951 19.0853 16.7418 18.6582 19.0249C18.4775 19.9909 18.1217 20.3148 17.7772 20.3465C17.0286 20.4154 16.4601 19.8518 15.7351 19.3765C14.6005 18.6328 13.9595 18.1698 12.8582 17.444C11.5854 16.6053 12.4105 16.1443 13.1358 15.3909C13.3256 15.1937 16.6241 12.1935 16.6879 11.9214C16.6959 11.8873 16.7033 11.7604 16.628 11.6934C16.5526 11.6264 16.4413 11.6494 16.361 11.6676C16.2472 11.6934 14.4347 12.8914 10.9234 15.2617C10.4089 15.6149 9.94291 15.7871 9.52539 15.7781C9.0651 15.7681 8.17969 15.5178 7.52148 15.3038C6.71416 15.0414 6.07252 14.9027 6.12839 14.457C6.15749 14.2248 6.47717 13.9874 7.08743 13.7448Z" fill="white"/>
</svg>
