<svg width="22" height="20" viewBox="0 0 22 20" fill="none" xmlns="http://www.w3.org/2000/svg">
<path d="M20.3713 0.00203803C20.0996 0.0219487 19.8329 0.0861525 19.5816 0.192145H19.5783C19.3371 0.288477 18.1903 0.7744 16.4468 1.51096L10.199 4.16137C5.71592 6.06244 1.30899 7.93452 1.30899 7.93452L1.36146 7.91406C1.36146 7.91406 1.05762 8.01466 0.740242 8.23375C0.544167 8.35942 0.375444 8.52386 0.244282 8.71711C0.0885538 8.94729 -0.0367058 9.29937 0.0098434 9.66339C0.0860147 10.2789 0.482106 10.648 0.766479 10.8518C1.05424 11.0581 1.32845 11.1544 1.32845 11.1544H1.33522L5.46794 12.5568C5.65329 13.1561 6.72731 16.7127 6.98545 17.5319C7.13779 18.0213 7.2859 18.3273 7.47125 18.5609C7.56096 18.6802 7.66591 18.78 7.79202 18.8601C7.85757 18.8985 7.92748 18.9289 8.00022 18.9505L7.9579 18.9403C7.97059 18.9437 7.98075 18.9539 7.99006 18.9573C8.02391 18.9667 8.04677 18.9701 8.08993 18.9769C8.74416 19.1764 9.26974 18.7672 9.26974 18.7672L9.29936 18.7433L11.7394 16.5055L15.8289 19.6657L15.922 19.7058C16.7743 20.0826 17.6376 19.8729 18.0938 19.5029C18.5533 19.1304 18.7319 18.6538 18.7319 18.6538L18.7615 18.5771L21.9218 2.26968C22.0115 1.8673 22.0344 1.4905 21.9353 1.12478C21.8332 0.754644 21.5975 0.436306 21.2743 0.232212C21.003 0.0660732 20.6884 -0.014118 20.3713 0.00203803ZM20.2858 1.74966C20.2824 1.80336 20.2926 1.7974 20.2689 1.90055V1.90993L17.1382 18.0477C17.1247 18.0707 17.1018 18.121 17.0392 18.1713C16.9732 18.2242 16.9207 18.2574 16.6457 18.1474L11.6437 14.2848L8.62228 17.0588L9.25704 12.9753L17.4294 5.30286C17.7662 4.98744 17.6537 4.92095 17.6537 4.92095C17.6774 4.53391 17.145 4.80756 17.145 4.80756L6.83987 11.2379L6.83649 11.2209L1.8972 9.54574V9.54233L1.88451 9.53977C1.89316 9.53688 1.90164 9.53346 1.9099 9.52954L1.93698 9.5159L1.96322 9.50653C1.96322 9.50653 6.37354 7.63444 10.8566 5.73338C13.1012 4.78114 15.3626 3.82208 17.1018 3.08211C18.8411 2.3464 20.1267 1.80677 20.1995 1.77779C20.2689 1.75051 20.2359 1.74966 20.2858 1.74966Z" fill="#333333"/>
</svg>
