<svg width="28" height="28" viewBox="0 0 28 28" fill="none" xmlns="http://www.w3.org/2000/svg">
<path d="M0 14C0 21.732 6.26801 28 14 28C21.732 28 28 21.732 28 14C28 6.26801 21.732 0 14 0C6.26801 0 0 6.26801 0 14Z" fill="#38DC8D"/>
<path fill-rule="evenodd" clip-rule="evenodd" d="M20.1922 7.70673C18.6778 6.19231 16.6585 5.38461 14.5383 5.38461C10.096 5.38461 6.46143 9.01923 6.46143 13.4615C6.46143 14.875 6.86528 16.2885 7.57201 17.5L6.46143 21.5385L10.7018 20.4279C11.9134 21.0337 13.2258 21.4375 14.5383 21.4375C18.9807 21.4375 22.6153 17.8029 22.6153 13.3606C22.6153 11.2404 21.7066 9.22115 20.1922 7.70673ZM14.5383 20.125C13.3268 20.125 12.1153 19.8221 11.1057 19.2163L10.9037 19.1154L8.37969 19.8221L9.08643 17.399L8.8845 17.0962C8.17777 15.9856 7.87488 14.774 7.87488 13.5625C7.87488 9.92788 10.9037 6.89904 14.5383 6.89904C16.3557 6.89904 17.9711 7.60577 19.2836 8.81731C20.5961 10.1298 21.2018 11.7452 21.2018 13.5625C21.2018 17.0962 18.2739 20.125 14.5383 20.125ZM18.173 15.0769C17.971 14.976 16.9614 14.4712 16.7595 14.4712C16.5576 14.3702 16.4566 14.3702 16.3556 14.5721C16.2547 14.774 15.8509 15.1779 15.7499 15.3798C15.6489 15.4808 15.548 15.4808 15.346 15.4808C15.1441 15.3798 14.5384 15.1779 13.7307 14.4712C13.1249 13.9663 12.721 13.2596 12.6201 13.0577C12.5191 12.8558 12.6201 12.7548 12.7211 12.6538C12.822 12.5529 12.923 12.4519 13.0239 12.351C13.1249 12.25 13.1249 12.149 13.2259 12.0481C13.3268 11.9471 13.2259 11.8462 13.2259 11.7452C13.2259 11.6442 12.822 10.6346 12.6201 10.2308C12.5191 9.92788 12.3172 9.92788 12.2162 9.92788C12.1153 9.92788 12.0143 9.92788 11.8124 9.92788C11.7114 9.92788 11.5095 9.92788 11.3076 10.1298C11.1056 10.3317 10.6009 10.8365 10.6009 11.8462C10.6009 12.8558 11.3076 13.7644 11.4085 13.9663C11.5095 14.0673 12.822 16.1875 14.8412 16.9952C16.5576 17.7019 16.8605 17.5 17.2643 17.5C17.6682 17.5 18.4758 16.9952 18.5768 16.5913C18.7787 16.0865 18.7787 15.6827 18.6778 15.6827C18.5768 15.1779 18.3749 15.1779 18.173 15.0769Z" fill="white"/>
</svg>
