<svg width="24" height="24" viewBox="0 0 24 24" fill="none" xmlns="http://www.w3.org/2000/svg">
<path d="M12.0029 1H11.9971C5.9324 1 1 5.93387 1 12C1 14.4053 1.77587 16.6361 3.0944 18.4475L1.72307 22.5351L5.95147 21.1843C7.74574 22.3724 9.85096 23.004 12.0029 23C18.0676 23 23 18.0661 23 12C23 5.93387 18.0676 1 12.0029 1Z" stroke="#333333" stroke-width="1.6" stroke-miterlimit="10"/>
<path d="M18.1231 16.299C17.8708 17.0088 16.8647 17.5955 16.0624 17.7671C15.5139 17.883 14.7981 17.9754 12.3855 16.9839C9.30108 15.7182 7.31522 12.6103 7.16122 12.4094C7.01455 12.207 5.91602 10.7638 5.91602 9.27216C5.91602 7.78056 6.68162 7.05163 6.98962 6.7407C7.24188 6.48403 7.66135 6.36816 8.06322 6.36816C8.19228 6.36816 8.30962 6.37403 8.41522 6.3799C8.72322 6.39163 8.87722 6.4107 9.08108 6.89323C9.33335 7.49896 9.95082 8.99056 10.0241 9.1431C10.0975 9.29563 10.1723 9.5039 10.0667 9.7063C9.96842 9.91456 9.88188 10.0055 9.72788 10.183C9.57388 10.3604 9.42575 10.4954 9.27175 10.6846C9.12948 10.8503 8.96962 11.0278 9.14855 11.3328C9.32748 11.632 9.94348 12.6294 10.8513 13.4302C12.0232 14.4642 12.9736 14.7942 13.3124 14.935C13.5647 15.0391 13.8668 15.0142 14.0531 14.8191C14.2877 14.5683 14.5781 14.1532 14.8729 13.7426C15.0827 13.4492 15.3481 13.4126 15.6253 13.5167C15.9084 13.615 17.4073 14.3483 17.7168 14.5008C18.0248 14.6534 18.2287 14.7267 18.3035 14.8558C18.3753 14.9834 18.3753 15.5891 18.1231 16.299V16.299Z" stroke="#333333" stroke-width="1.6" stroke-miterlimit="10"/>
</svg>
